<svg width="632.000000pt" height="632.000000pt" viewBox="0 0 632.000000 632.000000" xmlns="http://www.w3.org/2000/svg">
  <g transform="translate(0.000000,632.000000) scale(0.100000,-0.100000)" fill="none" stroke="#000000">
    <path d="M0 3160 l0 -3160 3160 0 3160 0 0 3160 0 3160 -3160 0 -3160 0 0
-3160z m2317 509 c54 -221 83 -454 83 -651 0 -159 -14 -280 -46 -408 l-24 -95
-49 -100 -49 -100 -57 -63 c-109 -119 -253 -202 -430 -247 l-100 -26 -130 -3
c-71 -2 -107 -2 -80 0 187 14 324 47 439 106 l81 42 81 80 81 81 42 87 c23 48
53 136 68 195 l28 108 -1 235 0 235 -17 95 c-23 123 -58 282 -66 297 l-6 11
-105 -39 c-151 -57 -368 -166 -495 -250 l-110 -73 -106 -105 -106 -106 -43
-73 -42 -72 -20 -73 -19 -72 5 -110 5 -110 25 -92 c14 -50 48 -142 76 -204 57
-127 52 -135 -8 -14 -49 99 -85 196 -113 300 l-21 80 -5 118 -5 118 12 62 c26
131 107 265 245 402 137 137 297 246 529 363 131 66 402 174 421 168 5 -1 20
-45 32 -97z m1020 -196 c-4 -3 -10 -3 -14 0 -3 4 0 7 7 7 7 0 10 -3 7 -7z
m-470 -20 c-4 -3 -7 0 -7 7 0 7 3 10 7 7 3 -4 3 -10 0 -14z m50 10 c-4 -3 -10
-3 -14 0 -3 4 0 7 7 7 7 0 10 -3 7 -7z m546 -8 c4 -8 3 -16 -1 -19 -4 -3 -9 4
-9 15 -2 23 3 25 10 4z m318 -8 l-12 -12 7 18 c3 10 9 15 12 12 3 -3 0 -11 -7
-18z m246 6 c-4 -3 -7 0 -7 7 0 7 3 10 7 7 3 -4 3 -10 0 -14z m50 10 c-4 -3
-10 -3 -14 0 -3 4 0 7 7 7 7 0 10 -3 7 -7z m-1097 -19 c0 -8 -19 -13 -24 -6
-3 5 1 9 9 9 8 0 15 -2 15 -3z m747 -11 c-4 -3 -7 0 -7 7 0 7 3 10 7 7 3 -4 3
-10 0 -14z m110 0 c-4 -3 -7 0 -7 7 0 7 3 10 7 7 3 -4 3 -10 0 -14z m303 11
c0 -8 -19 -13 -24 -6 -3 5 1 9 9 9 8 0 15 -2 15 -3z m-1665 -14 c3 -5 4 -10 1
-10 -3 0 -8 5 -11 10 -3 6 -4 10 -1 10 3 0 8 -4 11 -10z m342 -7 c-4 -3 -7 0
-7 7 0 7 3 10 7 7 3 -4 3 -10 0 -14z m1160 0 c-4 -3 -7 0 -7 7 0 7 3 10 7 7 3
-4 3 -10 0 -14z m-1326 -10 l14 -18 -17 14 c-17 13 -22 21 -14 21 2 0 10 -8
17 -17z m380 0 l14 -18 -17 14 c-17 13 -22 21 -14 21 2 0 10 -8 17 -17z m1160
0 l14 -18 -17 14 c-17 13 -22 21 -14 21 2 0 10 -8 17 -17z m-1344 0 c-4 -3
-10 -3 -14 0 -3 4 0 7 7 7 7 0 10 -3 7 -7z m1153 3 c0 -2 -8 -10 -17 -17 l-18
-14 14 18 c13 16 21 21 21 13z m-483 -13 c-4 -3 -10 -3 -14 0 -3 4 0 7 7 7 7
0 10 -3 7 -7z m323 -23 c0 -5 -2 -10 -4 -10 -3 0 -8 5 -11 10 -3 6 -1 10 4 10
6 0 11 -4 11 -10z m-1020 -4 c0 -3 -5 -8 -12 -12 l-11 -7 7 11 c7 12 16 16 16
8z m727 -48 l-4 -23 0 40 c-1 22 1 32 4 23 2 -10 2 -28 0 -40z m-407 7 c0 -8
-2 -15 -4 -15 -2 0 -6 7 -10 15 -3 8 -1 15 4 15 6 0 10 -7 10 -15z m147 -17
c-3 -7 -5 -2 -5 12 0 14 2 19 5 13 2 -7 2 -19 0 -25z m1010 15 c-4 -3 -7 0 -7
7 0 7 3 10 7 7 3 -4 3 -10 0 -14z m-1064 -54 l-9 -9 5 38 5 37 4 -29 c2 -16 0
-32 -5 -37z m524 34 c-4 -3 -7 0 -7 7 0 7 3 10 7 7 3 -4 3 -10 0 -14z m163 13
c0 -3 -5 -8 -12 -12 l-11 -7 7 11 c7 12 16 16 16 8z m-1163 -13 c-4 -3 -10 -3
-14 0 -3 4 0 7 7 7 7 0 10 -3 7 -7z m-724 -40 c-85 -205 -301 -630 -453 -894
-96 -165 -243 -399 -252 -399 -24 0 271 601 436 889 120 209 266 441 277 441
5 0 1 -17 -8 -37z m657 33 c0 -2 -8 -10 -17 -17 l-18 -14 14 18 c13 16 21 21
21 13z m-63 -23 c-4 -3 -7 0 -7 7 0 7 3 10 7 7 3 -4 3 -10 0 -14z m1060 0 c-4
-3 -7 0 -7 7 0 7 3 10 7 7 3 -4 3 -10 0 -14z m620 -15 l-5 -13 -1 19 c-1 11 2
17 5 13 3 -3 4 -12 1 -19z m-1705 -10 l-12 -12 0 10 c0 6 3 14 7 17 3 4 9 5
12 2 2 -3 -1 -11 -7 -17z m215 5 c-4 -3 -10 -3 -14 0 -3 4 0 7 7 7 7 0 10 -3
7 -7z m703 -7 c0 -3 -5 -8 -12 -12 l-11 -7 7 11 c7 12 16 16 16 8z m17 -23
c-4 -3 -10 -3 -14 0 -3 4 0 7 7 7 7 0 10 -3 7 -7z m703 3 c0 -3 -5 -8 -12 -12
l-11 -7 7 11 c7 12 16 16 16 8z m-1689 -59 l-11 -11 0 20 c0 27 14 41 18 19 2
-9 -1 -22 -7 -28z m1366 36 c-4 -3 -10 -3 -14 0 -3 4 0 7 7 7 7 0 10 -3 7 -7z
m80 -30 c-4 -3 -7 0 -7 7 0 7 3 10 7 7 3 -4 3 -10 0 -14z m-1150 0 c-4 -3 -10
-3 -14 0 -3 4 0 7 7 7 7 0 10 -3 7 -7z m973 -3 c0 -5 -2 -10 -4 -10 -3 0 -8 5
-11 10 -3 6 -1 10 4 10 6 0 11 -4 11 -10z m-965 -20 c3 -5 4 -10 1 -10 -3 0
-8 5 -11 10 -3 6 -4 10 -1 10 3 0 8 -4 11 -10z m1160 0 c3 -5 4 -10 1 -10 -3
0 -8 5 -11 10 -3 6 -4 10 -1 10 3 0 8 -4 11 -10z m242 3 c-4 -3 -10 -3 -14 0
-3 4 0 7 7 7 7 0 10 -3 7 -7z m-1774 -28 c-3 -9 -8 -14 -10 -11 -3 3 -2 9 2
15 9 16 15 13 8 -4z m940 8 c3 -5 -8 -8 -23 -8 -15 0 -26 3 -23 8 2 4 13 7 23
7 10 0 21 -3 23 -7z m262 -3 c3 -5 4 -10 1 -10 -3 0 -8 5 -11 10 -3 6 -4 10
-1 10 3 0 8 -4 11 -10z m492 -7 c-4 -3 -7 0 -7 7 0 7 3 10 7 7 3 -4 3 -10 0
-14z m53 13 c0 -2 -8 -10 -17 -17 l-18 -14 14 18 c13 16 21 21 21 13z m-1295
-30 c-11 -7 -31 -17 -44 -21 l-24 -7 7 11 c4 6 16 11 26 11 10 0 22 5 25 10 3
6 11 10 18 10 6 0 3 -6 -8 -14z m1175 6 c0 -5 -7 -9 -15 -9 -8 0 -12 4 -9 9 3
4 9 8 15 8 5 0 9 -4 9 -8z m-763 -19 c-4 -3 -7 0 -7 7 0 7 3 10 7 7 3 -4 3
-10 0 -14z m78 7 c-3 -5 -12 -10 -18 -10 l-12 0 15 10 c19 12 23 12 15 0z
m372 -7 c-4 -3 -7 0 -7 7 0 7 3 10 7 7 3 -4 3 -10 0 -14z m263 -3 c-20 -13
-33 -13 -25 0 3 6 14 10 23 10 l17 0 -15 -10z m-1573 -6 c-3 -3 -12 -4 -19 -1
l-13 5 19 1 c11 1 17 -2 13 -5z m110 -1 c-4 -3 -10 -3 -14 0 -3 4 0 7 7 7 7 0
10 -3 7 -7z m1170 0 c-4 -3 -10 -3 -14 0 -3 4 0 7 7 7 7 0 10 -3 7 -7z m-437
-87 c0 -3 -5 -8 -12 -12 l-11 -7 7 11 c7 12 16 16 16 8z m-105 -24 c-3 -3 -11
0 -18 7 l-12 12 18 -7 c10 -3 15 -9 12 -12z m-455 -1 c0 -6 -4 -12 -8 -15 -5
-3 -9 1 -9 9 0 8 4 15 9 15 4 0 8 -4 8 -9z m797 -8 c-4 -3 -7 0 -7 7 0 7 3 10
7 7 3 -4 3 -10 0 -14z m102 1 c2 -2 -7 -4 -22 -4 -14 0 -29 5 -32 10 l-7 11
29 -7 c15 -4 30 -8 32 -10z m171 12 c0 -3 -5 -8 -12 -12 l-11 -7 7 11 c7 12
16 16 16 8z m105 -6 c3 -5 4 -10 1 -10 -3 0 -8 5 -11 10 -3 6 -4 10 -1 10 3 0
8 -4 11 -10z m-848 -17 c-4 -3 -7 0 -7 7 0 7 3 10 7 7 3 -4 3 -10 0 -14z m360
10 c-4 -3 -10 -3 -14 0 -3 4 0 7 7 7 7 0 10 -3 7 -7z m-770 -20 c-4 -3 -7 0
-7 7 0 7 3 10 7 7 3 -4 3 -10 0 -14z m1300 1 c-3 -3 -12 -4 -19 -1 l-13 5 19
1 c11 1 17 -2 13 -5z m-1010 -21 c-4 -3 -10 -3 -14 0 -3 4 0 7 7 7 7 0 10 -3
7 -7z m70 -20 c-4 -3 -7 0 -7 7 0 7 3 10 7 7 3 -4 3 -10 0 -14z m253 13 c0 -3
-5 -8 -12 -12 l-11 -7 7 11 c7 12 16 16 16 8z m310 -1 c0 -1 -10 -10 -22 -21
l-23 -19 13 16 c6 9 10 18 7 21 -3 2 2 5 10 5 8 0 15 -1 15 -2z m-933 -12 c-4
-3 -10 -3 -14 0 -3 4 0 7 7 7 7 0 10 -3 7 -7z m593 3 c0 -3 -5 -8 -12 -12
l-11 -7 7 11 c7 12 16 16 16 8z m557 -18 l-5 -13 -1 19 c-1 11 2 17 5 13 3 -3
4 -12 1 -19z m233 18 c0 -3 -5 -8 -12 -12 l-11 -7 7 11 c7 12 16 16 16 8z
m-795 -36 c3 -5 4 -10 1 -10 -3 0 -8 5 -11 10 -3 6 -4 10 -1 10 3 0 8 -4 11
-10z m282 3 c-4 -3 -10 -3 -14 0 -3 4 0 7 7 7 7 0 10 -3 7 -7z m-3 -21 c3 -5
-1 -9 -9 -9 -8 0 -15 4 -15 9 0 4 4 8 9 8 6 0 12 -4 15 -8z m343 -14 l-5 -13
-1 19 c-1 11 2 17 5 13 3 -3 4 -12 1 -19z m-1270 -10 l-5 -13 -1 19 c-1 11 2
17 5 13 3 -3 4 -12 1 -19z m60 5 c-4 -3 -7 0 -7 7 0 7 3 10 7 7 3 -4 3 -10 0
-14z m760 0 c-4 -3 -7 0 -7 7 0 7 3 10 7 7 3 -4 3 -10 0 -14z m-1 -37 c0 -14
-3 -23 -7 -20 -4 2 -6 12 -4 22 4 22 4 22 8 22 2 0 3 -11 3 -24z m564 20 c0
-3 -5 -8 -12 -12 l-11 -7 7 11 c7 12 16 16 16 8z m-953 -21 c0 -8 -4 -12 -9
-9 -5 3 -6 10 -3 15 9 13 12 11 12 -6z m226 1 l6 -15 -14 6 c-8 3 -12 9 -9 14
7 12 11 11 17 -5z m674 0 l0 -14 -15 5 -14 6 14 8 c7 5 13 9 14 9 0 0 1 -6 1
-14z m-1330 -28 l-5 -13 -1 19 c-1 11 2 17 5 13 3 -3 4 -12 1 -19z m880 15
c-4 -3 -10 -3 -14 0 -3 4 0 7 7 7 7 0 10 -3 7 -7z m-20 -40 c-4 -3 -7 0 -7 7
0 7 3 10 7 7 3 -4 3 -10 0 -14z m410 -15 c-3 -7 -5 -2 -5 12 0 14 2 19 5 13 2
-7 2 -19 0 -25z m-630 15 c-4 -3 -10 -3 -14 0 -3 4 0 7 7 7 7 0 10 -3 7 -7z
m358 -3 c3 -5 4 -10 1 -10 -3 0 -8 5 -11 10 -3 6 -4 10 -1 10 3 0 8 -4 11 -10z
m212 -57 c-4 -3 -7 0 -7 7 0 7 3 10 7 7 3 -4 3 -10 0 -14z m-390 -15 l-5 -13
-1 19 c-1 11 2 17 5 13 3 -3 4 -12 1 -19z m-412 2 c3 -5 4 -10 1 -10 -3 0 -8
5 -11 10 -3 6 -4 10 -1 10 3 0 8 -4 11 -10z m200 0 c3 -5 4 -10 1 -10 -3 0 -8
5 -11 10 -3 6 -4 10 -1 10 3 0 8 -4 11 -10z m269 -6 l6 -15 -10 6 c-6 3 -10
10 -10 16 0 14 7 11 14 -7z m583 9 c-4 -3 -10 -3 -14 0 -3 4 0 7 7 7 7 0 10
-3 7 -7z m-317 -39 c0 -2 -7 -4 -15 -4 -8 0 -15 4 -15 10 0 5 7 7 15 4 8 -4
15 -8 15 -10z m257 1 c0 -8 -4 -15 -9 -15 -10 0 -11 14 -1 23 9 10 10 9 10 -8z
m-1472 -5 c3 -5 1 -10 -4 -10 -6 0 -11 5 -11 10 0 6 2 10 4 10 3 0 8 -4 11
-10z m1362 -6 c-3 -3 -12 -4 -19 -1 l-13 5 19 1 c11 1 17 -2 13 -5z m80 -1
c-4 -3 -10 -3 -14 0 -3 4 0 7 7 7 7 0 10 -3 7 -7z m70 0 c-4 -3 -10 -3 -14 0
-3 4 0 7 7 7 7 0 10 -3 7 -7z m-828 -405 c0 -13 -3 -18 -5 -11 -3 7 -12 9 -20
6 l-14 -5 6 16 c3 9 12 16 20 16 l14 0 -1 -22z m31 -34 l0 -15 -10 6 c-6 4 -8
11 -5 16 9 14 15 11 15 -7z m80 -48 l0 -52 12 -12 12 -12 -16 0 -16 0 -4 69
c-2 38 0 67 5 64 4 -2 7 -28 7 -57z m-908 -7 l-4 -61 10 6 c6 3 14 1 17 -5 l7
-11 -18 4 -19 3 -3 63 c-2 34 1 62 5 62 4 0 6 -28 5 -61z m383 51 c3 -5 4 -10
1 -10 -3 0 -8 5 -11 10 -3 6 -4 10 -1 10 3 0 8 -4 11 -10z m97 -107 l10 -13
-16 0 -16 0 2 68 2 67 3 -55 c3 -30 9 -60 15 -67z m121 -6 l22 -4 -27 -2 -28
-1 2 68 2 67 3 -62 4 -62 22 -4z m149 63 l-4 -60 29 1 c15 0 22 3 16 6 -22 8
-14 25 10 21 l22 -3 0 -15 0 -15 -40 0 -40 0 -3 63 c-2 34 1 62 5 62 4 0 6
-27 5 -60z m534 -56 c-3 -8 -13 -14 -21 -14 l-16 0 6 10 c4 6 11 8 16 5 l9 -6
2 63 2 63 3 -54 c2 -29 2 -60 -1 -67z m354 1 c5 3 12 0 15 -6 l7 -11 -18 4
-19 3 -1 60 0 60 3 -58 4 -58 9 6z m342 -2 l10 -13 -16 0 -16 0 2 68 2 67 3
-55 c3 -30 9 -60 15 -67z m215 110 c-4 -3 -10 -3 -14 0 -3 4 0 7 7 7 7 0 10
-3 7 -7z m188 -12 c-3 -6 -11 -11 -16 -11 l-10 0 13 14 c14 16 24 13 13 -3z
m-2298 2 c-4 -3 -10 -3 -14 0 -3 4 0 7 7 7 7 0 10 -3 7 -7z m-32 -13 c3 -5 4
-10 1 -10 -3 0 -8 5 -11 10 -3 6 -4 10 -1 10 3 0 8 -4 11 -10z m132 -12 l-5
-13 -1 19 c-1 11 2 17 5 13 3 -3 4 -12 1 -19z m1680 15 c-4 -3 -10 -3 -14 0
-3 4 0 7 7 7 7 0 10 -3 7 -7z m463 -36 c0 -24 5 -48 12 -55 l12 -12 -16 0 -16
0 -4 55 c-1 30 0 55 5 55 4 0 7 -19 7 -43z m-120 29 c0 -2 -7 -7 -16 -10 l-15
-6 6 10 c6 10 25 14 25 6z m-1883 -33 c-4 -3 -7 0 -7 7 0 7 3 10 7 7 3 -4 3
-10 0 -14z m33 13 c0 -3 -5 -8 -12 -12 l-11 -7 7 11 c7 12 16 16 16 8z m1350
0 c0 -3 -5 -8 -12 -12 l-11 -7 7 11 c7 12 16 16 16 8z m470 -17 c0 -5 -4 -9
-10 -9 -5 0 -10 7 -10 16 l0 15 10 -6 c6 -3 10 -10 10 -16z m-1210 1 c-8 -5
-19 -10 -25 -10 -5 0 -3 5 5 10 8 5 20 10 25 10 6 0 3 -5 -5 -10z m450 0 c0
-5 -4 -10 -10 -10 -5 0 -10 5 -10 10 0 6 5 10 10 10 6 0 10 -4 10 -10z m422
-2 l-12 -12 -12 12 -12 12 24 0 24 0 -12 -12z m-1628 -18 l22 0 0 -20 0 -20
-39 0 c-21 0 -36 4 -33 9 3 4 18 7 33 4 l28 -3 -22 9 -23 10 1 18 1 18 5 -12
c2 -7 15 -13 27 -13z m2292 -26 c-3 -8 -13 -14 -23 -14 l-18 1 18 13 c9 7 18
22 18 32 l1 19 5 -18 c3 -10 2 -25 -1 -33z m-2132 20 l6 -15 -10 6 c-6 3 -10
0 -10 -7 l0 -14 -20 0 c-11 0 -20 4 -20 8 0 4 7 8 15 8 9 0 18 7 21 15 8 19
10 19 18 -1z m-298 -3 c-4 -5 0 -11 6 -14 7 -2 10 -8 6 -12 -4 -4 -14 0 -22 8
l-16 15 13 5 c18 8 19 8 13 -2z m539 -1 c3 -5 1 -10 -4 -10 -6 0 -11 5 -11 10
0 6 2 10 4 10 3 0 8 -4 11 -10z m542 4 c-3 -3 -12 -4 -19 -1 l-13 5 19 1 c11
1 17 -2 13 -5z m273 2 c0 -2 -11 -6 -25 -8 l-24 -5 5 8 c5 9 44 13 44 5z m413
-3 c-7 -2 -19 -2 -25 0 -7 3 -2 5 12 5 14 0 19 -2 13 -5z m340 0 c-7 -2 -19
-2 -25 0 -7 3 -2 5 12 5 14 0 19 -2 13 -5z m-1076 -20 c-4 -3 -7 0 -7 7 0 7 3
10 7 7 3 -4 3 -10 0 -14z m360 2 c0 -8 -6 -15 -14 -15 -17 0 -17 17 0 23 6 3
12 6 13 6 0 1 1 -6 1 -14z m-462 -5 l6 -10 -21 0 -21 0 6 10 c3 6 10 10 15 10
5 0 12 -4 15 -10z m155 2 c0 -4 -9 -8 -19 -8 -11 0 -17 4 -15 8 3 4 12 8 20 8
8 0 14 -4 14 -8z m215 -2 l6 -10 -20 0 c-12 0 -21 5 -21 10 0 6 6 10 14 10 8
0 18 -4 21 -10z m430 0 l6 -10 -15 0 c-9 0 -16 5 -16 10 0 6 4 10 9 10 6 0 13
-4 16 -10z m85 0 c0 -5 -7 -10 -16 -10 l-15 0 6 10 c3 6 10 10 16 10 5 0 9 -4
9 -10z m165 0 l6 -10 -15 0 c-9 0 -16 5 -16 10 0 6 4 10 9 10 6 0 13 -4 16
-10z m85 0 c0 -5 -7 -10 -16 -10 l-15 0 6 10 c3 6 10 10 16 10 5 0 9 -4 9 -10z
m90 0 c0 -5 -7 -10 -16 -10 l-15 0 6 10 c3 6 10 10 16 10 5 0 9 -4 9 -10z" />
  </g>
  <g transform="translate(0.000000,632.000000) scale(0.100000,-0.100000)" fill="none" stroke="#000000">
    <path d="M2210 3734 c-25 -8 -54 -18 -65 -23 -11 -5 -74 -33 -140 -61 -472
-204 -803 -489 -891 -769 -19 -59 -28 -229 -16 -306 l9 -60 1 92 c1 130 24
210 88 310 49 77 49 77 151 180 l93 92 120 80 c67 44 181 109 253 145 129 63
285 128 338 141 l27 7 10 -34 c19 -60 53 -231 69 -348 l15 -115 1 -160 0 -160
-16 -96 c-20 -118 -65 -253 -109 -328 -44 -74 -162 -192 -231 -231 -32 -18
-57 -34 -57 -36 0 -2 21 6 48 18 132 62 246 159 319 270 38 58 97 189 108 237
28 122 36 173 46 271 l11 115 -6 135 c-7 170 -29 334 -72 530 -3 14 -7 35 -10
47 -9 44 -24 73 -36 72 -7 -1 -33 -7 -58 -15z" />
    <path d="M1887 3053 c-52 -87 -128 -216 -168 -288 -114 -203 -368 -719 -340
-690 10 11 221 355 221 361 0 2 32 61 71 131 65 117 299 584 312 626 4 9 5 17
3 17 -2 0 -47 -71 -99 -157z" />
  </g>
  <g transform="translate(0.000000,632.000000) scale(0.100000,-0.100000)" fill="none" stroke="#000000">
    <path d="M2903 3463 c4 -3 10 -3 14 0 3 4 0 7 -7 7 -7 0 -10 -3 -7 -7z" />
    <path d="M4063 3463 c4 -3 10 -3 14 0 3 4 0 7 -7 7 -7 0 -10 -3 -7 -7z" />
    <path d="M3453 3445 c0 -8 4 -12 9 -9 5 3 6 10 3 15 -9 13 -12 11 -12 -6z" />
    <path d="M3830 3440 c0 -7 3 -10 7 -7 3 4 3 10 0 14 -4 3 -7 0 -7 -7z" />
    <path d="M2810 3430 c0 -7 3 -10 7 -7 3 4 3 10 0 14 -4 3 -7 0 -7 -7z" />
    <path d="M3970 3430 c0 -7 3 -10 7 -7 3 4 3 10 0 14 -4 3 -7 0 -7 -7z" />
    <path d="M2630 3426 c0 -2 8 -10 18 -17 l17 -14 -14 18 c-13 16 -21 21 -21 13z" />
    <path d="M3010 3426 c0 -2 8 -10 18 -17 l17 -14 -14 18 c-13 16 -21 21 -21 13z" />
    <path d="M4170 3426 c0 -2 8 -10 18 -17 l17 -14 -14 18 c-13 16 -21 21 -21 13z" />
    <path d="M3979 3403 l-14 -18 18 14 c16 13 21 21 13 21 -2 0 -10 -8 -17 -17z" />
    <path d="M3232 3310 c0 -19 2 -27 5 -17 2 9 2 25 0 35 -3 9 -5 1 -5 -18z" />
    <path d="M3750 3320 c0 -7 3 -10 7 -7 3 4 3 10 0 14 -4 3 -7 0 -7 -7z" />
    <path d="M2669 3293 l-14 -18 18 14 c9 7 17 15 17 17 0 8 -8 3 -21 -13z" />
    <path d="M4301 3274 l1 -19 5 13 c3 7 2 16 -1 19 -3 4 -6 -2 -5 -13z" />
    <path d="M2595 3270 c-3 -5 -1 -10 4 -10 6 0 11 5 11 10 0 6 -2 10 -4 10 -3 0
-8 -4 -11 -10z" />
    <path d="M4224 3228 l-7 -11 11 7 c12 7 16 16 8 16 -3 0 -8 -5 -12 -12z" />
    <path d="M2542 3190 c0 -14 2 -19 5 -12 2 6 2 18 0 25 -3 6 -5 1 -5 -13z" />
    <path d="M3805 3180 c3 -5 8 -10 11 -10 2 0 4 5 4 10 0 6 -5 10 -11 10 -5 0
-7 -4 -4 -10z" />
    <path d="M2845 3160 c3 -5 8 -10 11 -10 3 0 2 5 -1 10 -3 6 -8 10 -11 10 -3 0
-2 -4 1 -10z" />
    <path d="M3675 3140 c3 -5 8 -10 11 -10 3 0 2 5 -1 10 -3 6 -8 10 -11 10 -3 0
-2 -4 1 -10z" />
    <path d="M4209 3133 l-14 -18 18 14 c16 13 21 21 13 21 -2 0 -10 -8 -17 -17z" />
    <path d="M2905 3113 c-31 -7 -40 -21 -11 -16 15 3 29 9 32 14 3 5 4 8 2 8 -2
-1 -12 -3 -23 -6z" />
    <path d="M4036 3101 l-6 -9 20 5 c23 6 26 13 6 13 -8 0 -17 -4 -20 -9z" />
    <path d="M3560 2980 c0 -7 3 -10 7 -7 3 4 3 10 0 14 -4 3 -7 0 -7 -7z" />
    <path d="M3935 2980 c3 -5 8 -10 11 -10 3 0 2 5 -1 10 -3 6 -8 10 -11 10 -3 0
-2 -4 1 -10z" />
    <path d="M3633 2973 c9 -2 23 -2 30 0 6 3 -1 5 -18 5 l-30 0 18 -5z" />
    <path d="M2963 2933 c4 -3 10 -3 14 0 3 4 0 7 -7 7 -7 0 -10 -3 -7 -7z" />
    <path d="M3040 2920 c0 -7 3 -10 7 -7 3 4 3 10 0 14 -4 3 -7 0 -7 -7z" />
    <path d="M3585 2922 c3 -3 -1 -12 -7 -21 l-13 -16 23 19 c12 11 22 20 22 21 0
1 -7 2 -15 2 -8 0 -13 -3 -10 -5z" />
    <path d="M2663 2913 c4 -3 10 -3 14 0 3 4 0 7 -7 7 -7 0 -10 -3 -7 -7z" />
    <path d="M3524 2858 l-7 -11 11 7 c7 4 12 9 12 12 0 8 -9 4 -16 -8z" />
    <path d="M2670 2850 c0 -7 3 -10 7 -7 3 4 3 10 0 14 -4 3 -7 0 -7 -7z" />
    <path d="M3984 2818 l-7 -11 11 7 c7 4 12 9 12 12 0 8 -9 4 -16 -8z" />
    <path d="M3260 2811 c0 -6 4 -13 10 -16 l10 -6 -6 15 c-7 18 -14 21 -14 7z" />
    <path d="M3015 2680 c3 -5 8 -10 11 -10 3 0 2 5 -1 10 -3 6 -8 10 -11 10 -3 0
-2 -4 1 -10z" />
    <path d="M3215 2680 c3 -5 8 -10 11 -10 3 0 2 5 -1 10 -3 6 -8 10 -11 10 -3 0
-2 -4 1 -10z" />
    <path d="M4063 2683 c4 -3 10 -3 14 0 3 4 0 7 -7 7 -7 0 -10 -3 -7 -7z" />
    <path d="M3485 2670 c3 -5 8 -10 11 -10 3 0 2 5 -1 10 -3 6 -8 10 -11 10 -3 0
-2 -4 1 -10z" />
    <path d="M3730 2650 c0 -6 7 -10 15 -10 8 0 15 2 15 4 0 2 -7 6 -15 10 -8 3
-15 1 -15 -4z" />
    <path d="M3193 2223 c4 -3 10 -3 14 0 3 4 0 7 -7 7 -7 0 -10 -3 -7 -7z" />
    <path d="M2034 2198 l-7 -11 11 7 c12 7 16 16 8 16 -3 0 -8 -5 -12 -12z" />
    <path d="M3244 2198 l-7 -11 11 7 c7 4 12 9 12 12 0 8 -9 4 -16 -8z" />
    <path d="M3713 2140 c0 -36 2 -50 4 -32 2 17 2 47 0 65 -2 17 -4 3 -4 -33z" />
    <path d="M4053 2140 c0 -36 2 -50 4 -32 2 17 2 47 0 65 -2 17 -4 3 -4 -33z" />
    <path d="M4802 2184 l-13 -14 10 0 c10 0 25 19 20 25 -2 1 -10 -3 -17 -11z" />
    <path d="M2891 2138 c0 -32 2 -58 7 -58 4 0 6 19 4 43 -5 70 -10 76 -11 15z" />
    <path d="M4391 2138 c0 -32 2 -58 7 -58 4 0 6 19 4 43 -5 70 -10 76 -11 15z" />
    <path d="M1214 2168 l-7 -11 11 7 c12 7 16 16 8 16 -3 0 -8 -5 -12 -12z" />
    <path d="M4283 2173 c4 -3 10 -3 14 0 3 4 0 7 -7 7 -7 0 -10 -3 -7 -7z" />
    <path d="M2774 2138 l-7 -11 11 7 c7 4 12 9 12 12 0 8 -9 4 -16 -8z" />
    <path d="M4124 2138 l-7 -11 11 7 c7 4 12 9 12 12 0 8 -9 4 -16 -8z" />
    <path d="M3384 2128 l-7 -11 11 7 c7 4 12 9 12 12 0 8 -9 4 -16 -8z" />
    <path d="M3835 2130 c-3 -5 -1 -10 4 -10 6 0 11 5 11 10 0 6 -2 10 -4 10 -3 0
-8 -4 -11 -10z" />
    <path d="M4247 2129 c7 -7 15 -10 18 -7 3 3 -2 9 -12 12 l-18 7 12 -12z" />
    <path d="M4590 2130 c0 -5 5 -10 11 -10 5 0 7 5 4 10 -3 6 -8 10 -11 10 -2 0
-4 -4 -4 -10z" />
    <path d="M2495 2101 c-6 -11 13 -26 22 -17 4 3 1 6 -6 6 -7 0 -9 5 -6 10 3 6
4 10 1 10 -3 0 -7 -4 -11 -9z" />
    <path d="M2615 2100 c7 -11 45 -20 45 -10 0 4 -11 10 -25 12 -13 3 -22 2 -20
-2z" />
    <path d="M2770 2094 l-25 -14 23 0 c12 0 22 5 22 11 l0 10 12 -7 11 -7 -7 11
c-4 7 -8 12 -9 11 -1 -1 -13 -7 -27 -15z" />
    <path d="M3033 2093 c4 -3 10 -3 14 0 3 4 0 7 -7 7 -7 0 -10 -3 -7 -7z" />
    <path d="M3220 2090 c19 -13 30 -13 30 0 0 6 -10 10 -22 10 l-23 0 15 -10z" />
    <path d="M3345 2080 c3 -5 8 -10 11 -10 3 0 2 5 -1 10 -3 6 -8 10 -11 10 -3 0
-2 -4 1 -10z" />
    <path d="M3405 2080 l-6 -10 15 6 c18 7 21 14 7 14 -6 0 -13 -4 -16 -10z" />
    <path d="M3568 2083 c7 -3 16 -2 19 1 4 3 -2 6 -13 5 l-19 -1 13 -5z" />
    <path d="M3873 2083 c4 -3 10 -3 14 0 3 4 0 7 -7 7 -7 0 -10 -3 -7 -7z" />
    <path d="M4210 2086 c0 -2 7 -7 16 -10 l15 -6 -6 10 c-6 10 -25 14 -25 6z" />
    <path d="M4294 2078 l-7 -11 11 7 c12 7 16 16 8 16 -3 0 -8 -5 -12 -12z" />
    <path d="M4463 2083 c4 -3 10 -3 14 0 3 4 0 7 -7 7 -7 0 -10 -3 -7 -7z" />
    <path d="M4553 2083 c4 -3 10 -3 14 0 3 4 0 7 -7 7 -7 0 -10 -3 -7 -7z" />
    <path d="M4913 2083 c4 -3 10 -3 14 0 3 4 0 7 -7 7 -7 0 -10 -3 -7 -7z" />
    <path d="M1265 2070 c3 -5 8 -10 11 -10 3 0 2 5 -1 10 -3 6 -8 10 -11 10 -3 0
-2 -4 1 -10z" />
    <path d="M1393 1973 c9 -2 23 -2 30 0 6 3 -1 5 -18 5 l-30 0 18 -5z" />
  </g>
  <g transform="translate(0.000000,632.000000) scale(0.100000,-0.100000)" fill="none" stroke="#000000">
    <path d="M3280 3330 c0 -7 3 -10 7 -7 3 4 3 10 0 14 -4 3 -7 0 -7 -7z" />
    <path d="M3904 3318 l-7 -11 11 7 c7 4 12 9 12 12 0 8 -9 4 -16 -8z" />
    <path d="M2620 3290 c0 -7 3 -10 7 -7 3 4 3 10 0 14 -4 3 -7 0 -7 -7z" />
    <path d="M3504 3248 l-7 -11 11 7 c12 7 16 16 8 16 -3 0 -8 -5 -12 -12z" />
    <path d="M3903 3213 c4 -3 10 -3 14 0 3 4 0 7 -7 7 -7 0 -10 -3 -7 -7z" />
    <path d="M2753 2983 c4 -3 10 -3 14 0 3 4 0 7 -7 7 -7 0 -10 -3 -7 -7z" />
    <path d="M3935 2800 c3 -5 8 -10 11 -10 3 0 2 5 -1 10 -3 6 -8 10 -11 10 -3 0
-2 -4 1 -10z" />
    <path d="M3425 2790 c3 -5 8 -10 11 -10 3 0 2 5 -1 10 -3 6 -8 10 -11 10 -3 0
-2 -4 1 -10z" />
    <path d="M3431 2684 l1 -19 5 13 c3 7 2 16 -1 19 -3 4 -6 -2 -5 -13z" />
    <path d="M4000 2640 c0 -5 5 -10 11 -10 5 0 7 5 4 10 -3 6 -8 10 -11 10 -2 0
-4 -4 -4 -10z" />
    <path d="M3200 2240 c0 -5 7 -10 15 -10 8 0 15 5 15 10 0 6 -7 10 -15 10 -8 0
-15 -4 -15 -10z" />
    <path d="M2423 2140 c0 -36 2 -50 4 -32 2 17 2 47 0 65 -2 17 -4 3 -4 -33z" />
    <path d="M3173 2140 c0 -36 2 -50 4 -32 2 17 2 47 0 65 -2 17 -4 3 -4 -33z" />
    <path d="M3333 2140 c0 -36 2 -50 4 -32 2 17 2 47 0 65 -2 17 -4 3 -4 -33z" />
    <path d="M2014 2178 l-7 -11 11 7 c12 7 16 16 8 16 -3 0 -8 -5 -12 -12z" />
    <path d="M3003 2135 c0 -33 2 -45 4 -27 2 18 2 45 0 60 -2 15 -4 0 -4 -33z" />
    <path d="M2610 2170 c0 -7 3 -10 7 -7 3 4 3 10 0 14 -4 3 -7 0 -7 -7z" />
    <path d="M4753 2125 c0 -27 2 -38 4 -22 2 15 2 37 0 50 -2 12 -4 0 -4 -28z" />
    <path d="M4595 2140 c3 -5 8 -10 11 -10 3 0 2 5 -1 10 -3 6 -8 10 -11 10 -3 0
-2 -4 1 -10z" />
    <path d="M2610 2120 c0 -7 3 -10 7 -7 3 4 3 10 0 14 -4 3 -7 0 -7 -7z" />
    <path d="M3773 2083 c4 -3 10 -3 14 0 3 4 0 7 -7 7 -7 0 -10 -3 -7 -7z" />
  </g>
  <g transform="translate(0.000000,632.000000) scale(0.100000,-0.100000)" fill="none" stroke="#000000">
    <path d="M3542 3345 l0 -30 5 18 c2 9 2 23 0 30 -3 6 -5 -1 -5 -18z" />
    <path d="M2933 3123 c4 -3 10 -3 14 0 3 4 0 7 -7 7 -7 0 -10 -3 -7 -7z" />
    <path d="M4093 3123 c4 -3 10 -3 14 0 3 4 0 7 -7 7 -7 0 -10 -3 -7 -7z" />
    <path d="M1339 3083 l-14 -18 18 14 c16 13 21 21 13 21 -2 0 -10 -8 -17 -17z" />
    <path d="M4930 2110 c0 -7 3 -10 7 -7 3 4 3 10 0 14 -4 3 -7 0 -7 -7z" />
  </g>
  <g transform="translate(0.000000,632.000000) scale(0.100000,-0.100000)" fill="none" stroke="#000000">
    <path d="M2550 3200 c0 -7 3 -10 7 -7 3 4 3 10 0 14 -4 3 -7 0 -7 -7z" />
    <path d="M3403 3103 c4 -3 10 -3 14 0 3 4 0 7 -7 7 -7 0 -10 -3 -7 -7z" />
    <path d="M2628 2103 c6 -2 18 -2 25 0 6 3 1 5 -13 5 -14 0 -19 -2 -12 -5z" />
    <path d="M3223 2103 c4 -3 10 -3 14 0 3 4 0 7 -7 7 -7 0 -10 -3 -7 -7z" />
    <path d="M3250 2092 l0 -12 -37 -2 -38 -1 34 -4 c33 -4 61 10 48 24 -4 3 -7 1
-7 -5z" />
    <path d="M4922 2084 l-13 -14 10 0 c10 0 25 19 20 25 -2 1 -10 -3 -17 -11z" />
    <path d="M2433 2073 c4 -3 10 -3 14 0 3 4 0 7 -7 7 -7 0 -10 -3 -7 -7z" />
    <path d="M2503 2073 c4 -3 10 -3 14 0 3 4 0 7 -7 7 -7 0 -10 -3 -7 -7z" />
    <path d="M2603 2073 c4 -3 10 -3 14 0 3 4 0 7 -7 7 -7 0 -10 -3 -7 -7z" />
    <path d="M2638 2073 c7 -3 16 -2 19 1 4 3 -2 6 -13 5 l-19 -1 13 -5z" />
    <path d="M3008 2073 c7 -3 16 -2 19 1 4 3 -2 6 -13 5 l-19 -1 13 -5z" />
    <path d="M3333 2073 c4 -3 10 -3 14 0 3 4 0 7 -7 7 -7 0 -10 -3 -7 -7z" />
    <path d="M3413 2073 c4 -3 10 -3 14 0 3 4 0 7 -7 7 -7 0 -10 -3 -7 -7z" />
    <path d="M3783 2073 c4 -3 10 -3 14 0 3 4 0 7 -7 7 -7 0 -10 -3 -7 -7z" />
    <path d="M3873 2073 c4 -3 10 -3 14 0 3 4 0 7 -7 7 -7 0 -10 -3 -7 -7z" />
    <path d="M4213 2073 c4 -3 10 -3 14 0 3 4 0 7 -7 7 -7 0 -10 -3 -7 -7z" />
    <path d="M4303 2073 c4 -3 10 -3 14 0 3 4 0 7 -7 7 -7 0 -10 -3 -7 -7z" />
    <path d="M4473 2073 c4 -3 10 -3 14 0 3 4 0 7 -7 7 -7 0 -10 -3 -7 -7z" />
    <path d="M4643 2073 c4 -3 10 -3 14 0 3 4 0 7 -7 7 -7 0 -10 -3 -7 -7z" />
    <path d="M4753 2073 c4 -3 10 -3 14 0 3 4 0 7 -7 7 -7 0 -10 -3 -7 -7z" />
  </g>
  <g transform="translate(0.000000,632.000000) scale(0.100000,-0.100000)" fill="none" stroke="#000000">
    <path d="M2350 3430 c0 -7 3 -10 7 -7 3 4 3 10 0 14 -4 3 -7 0 -7 -7z" />
    <path d="M1514 3378 l-7 -11 11 7 c12 7 16 16 8 16 -3 0 -8 -5 -12 -12z" />
    <path d="M2381 3144 l1 -19 5 13 c3 7 2 16 -1 19 -3 4 -6 -2 -5 -13z" />
    <path d="M1264 3018 l-7 -11 11 7 c12 7 16 16 8 16 -3 0 -8 -5 -12 -12z" />
    <path d="M2273 2895 c0 -38 2 -53 4 -32 2 20 2 52 0 70 -2 17 -4 1 -4 -38z" />
    <path d="M2380 2890 c0 -7 3 -10 7 -7 3 4 3 10 0 14 -4 3 -7 0 -7 -7z" />
    <path d="M2134 2228 l-7 -11 11 7 c12 7 16 16 8 16 -3 0 -8 -5 -12 -12z" />
  </g>
  <g transform="translate(0.000000,632.000000) scale(0.100000,-0.100000)" fill="none" stroke="#000000">
    <path d="M2390 3140 c0 -7 3 -10 7 -7 3 4 3 10 0 14 -4 3 -7 0 -7 -7z" />
    <path d="M2260 2950 c0 -7 3 -10 7 -7 3 4 3 10 0 14 -4 3 -7 0 -7 -7z" />
    <path d="M2390 2890 c0 -7 3 -10 7 -7 3 4 3 10 0 14 -4 3 -7 0 -7 -7z" />
    <path d="M2261 2844 l1 -19 5 13 c3 7 2 16 -1 19 -3 4 -6 -2 -5 -13z" />
    <path d="M1110 2610 c0 -7 3 -10 7 -7 3 4 3 10 0 14 -4 3 -7 0 -7 -7z" />
    <path d="M1144 2348 l-7 -11 11 7 c12 7 16 16 8 16 -3 0 -8 -5 -12 -12z" />
    <path d="M1154 2318 l-7 -11 11 7 c12 7 16 16 8 16 -3 0 -8 -5 -12 -12z" />
    <path d="M1220 2161 c0 -6 4 -13 10 -16 l10 -6 -6 15 c-7 18 -14 21 -14 7z" />
    <path d="M1493 1973 c9 -2 25 -2 35 0 9 3 1 5 -18 5 -19 0 -27 -2 -17 -5z" />
  </g>
  <g transform="translate(0.000000,632.000000) scale(0.100000,-0.100000)" fill="none" stroke="#000000">
    <path d="M2275 3750 c3 -5 8 -10 11 -10 3 0 2 5 -1 10 -3 6 -8 10 -11 10 -3 0
-2 -4 1 -10z" />
    <path d="M2000 3240 c0 -7 3 -10 7 -7 3 4 3 10 0 14 -4 3 -7 0 -7 -7z" />
    <path d="M1983 3213 c4 -3 10 -3 14 0 3 4 0 7 -7 7 -7 0 -10 -3 -7 -7z" />
    <path d="M1384 3138 l-7 -11 11 7 c12 7 16 16 8 16 -3 0 -8 -5 -12 -12z" />
    <path d="M2380 2870 c0 -7 3 -10 7 -7 3 4 3 10 0 14 -4 3 -7 0 -7 -7z" />
    <path d="M2250 2650 c0 -7 3 -10 7 -7 3 4 3 10 0 14 -4 3 -7 0 -7 -7z" />
    <path d="M2154 2248 l-7 -11 11 7 c12 7 16 16 8 16 -3 0 -8 -5 -12 -12z" />
    <path d="M2109 2203 l-14 -18 18 14 c9 7 17 15 17 17 0 8 -8 3 -21 -13z" />
    <path d="M1385 2100 c3 -5 8 -10 11 -10 3 0 2 5 -1 10 -3 6 -8 10 -11 10 -3 0
-2 -4 1 -10z" />
  </g>
  <g transform="translate(0.000000,632.000000) scale(0.100000,-0.100000)" fill="none" stroke="#000000">
    <path d="M2391 3064 l1 -19 5 13 c3 7 2 16 -1 19 -3 4 -6 -2 -5 -13z" />
    <path d="M2260 3020 c0 -7 3 -10 7 -7 3 4 3 10 0 14 -4 3 -7 0 -7 -7z" />
    <path d="M2392 2970 c0 -14 2 -19 5 -12 2 6 2 18 0 25 -3 6 -5 1 -5 -13z" />
    <path d="M1155 2320 c3 -5 8 -10 11 -10 3 0 2 5 -1 10 -3 6 -8 10 -11 10 -3 0
-2 -4 1 -10z" />
    <path d="M1720 2010 c0 -7 3 -10 7 -7 3 4 3 10 0 14 -4 3 -7 0 -7 -7z" />
    <path d="M1583 1983 c4 -3 10 -3 14 0 3 4 0 7 -7 7 -7 0 -10 -3 -7 -7z" />
  </g>
  <g transform="translate(0.000000,632.000000) scale(0.100000,-0.100000)" fill="none" stroke="#000000">
    <path d="M2391 3094 l1 -19 5 13 c3 7 2 16 -1 19 -3 4 -6 -2 -5 -13z" />
    <path d="M2260 3000 c0 -7 3 -10 7 -7 3 4 3 10 0 14 -4 3 -7 0 -7 -7z" />
    <path d="M2391 2934 l1 -19 5 13 c3 7 2 16 -1 19 -3 4 -6 -2 -5 -13z" />
    <path d="M2260 2800 c0 -7 3 -10 7 -7 3 4 3 10 0 14 -4 3 -7 0 -7 -7z" />
    <path d="M1110 2560 c0 -7 3 -10 7 -7 3 4 3 10 0 14 -4 3 -7 0 -7 -7z" />
    <path d="M1603 1983 c4 -3 10 -3 14 0 3 4 0 7 -7 7 -7 0 -10 -3 -7 -7z" />
  </g>
  <g transform="translate(0.000000,632.000000) scale(0.100000,-0.100000)" fill="none" stroke="#000000">
    <path d="M2390 3040 c0 -7 3 -10 7 -7 3 4 3 10 0 14 -4 3 -7 0 -7 -7z" />
    <path d="M2391 3004 l1 -19 5 13 c3 7 2 16 -1 19 -3 4 -6 -2 -5 -13z" />
    <path d="M2260 2770 c0 -7 3 -10 7 -7 3 4 3 10 0 14 -4 3 -7 0 -7 -7z" />
    <path d="M1080 2750 c0 -7 3 -10 7 -7 3 4 3 10 0 14 -4 3 -7 0 -7 -7z" />
    <path d="M1080 2640 c0 -7 3 -10 7 -7 3 4 3 10 0 14 -4 3 -7 0 -7 -7z" />
    <path d="M1145 2350 c3 -5 8 -10 11 -10 3 0 2 5 -1 10 -3 6 -8 10 -11 10 -3 0
-2 -4 1 -10z" />
  </g>
  <g transform="translate(0.000000,632.000000) scale(0.100000,-0.100000)" fill="none" stroke="#000000">
    <path d="M1329 3233 l-24 -28 28 24 c25 23 32 31 24 31 -2 0 -14 -12 -28 -27z" />
    <path d="M2262 2890 c0 -19 2 -27 5 -17 2 9 2 25 0 35 -3 9 -5 1 -5 -18z" />
    <path d="M1203 2193 c4 -3 10 -3 14 0 3 4 0 7 -7 7 -7 0 -10 -3 -7 -7z" />
    <path d="M1463 1973 c4 -3 10 -3 14 0 3 4 0 7 -7 7 -7 0 -10 -3 -7 -7z" />
  </g>
  <g transform="translate(0.000000,632.000000) scale(0.100000,-0.100000)" fill="none" stroke="#000000">
    <path d="M1110 2640 c0 -7 3 -10 7 -7 3 4 3 10 0 14 -4 3 -7 0 -7 -7z" />
    <path d="M1185 2240 c3 -5 8 -10 11 -10 3 0 2 5 -1 10 -3 6 -8 10 -11 10 -3 0
-2 -4 1 -10z" />
    <path d="M2124 2208 l-7 -11 11 7 c12 7 16 16 8 16 -3 0 -8 -5 -12 -12z" />
  </g>
  <g transform="translate(0.000000,632.000000) scale(0.100000,-0.100000)" fill="none" stroke="#000000">
    <path d="M1080 2720 c0 -7 3 -10 7 -7 3 4 3 10 0 14 -4 3 -7 0 -7 -7z" />
    <path d="M2034 2188 l-19 -23 23 19 c21 18 27 26 19 26 -2 0 -12 -10 -23 -22z" />
  </g>
  <g transform="translate(0.000000,632.000000) scale(0.100000,-0.100000)" fill="none" stroke="#000000">
    <path d="M2260 2970 c0 -7 3 -10 7 -7 3 4 3 10 0 14 -4 3 -7 0 -7 -7z" />
    <path d="M1110 2590 c0 -7 3 -10 7 -7 3 4 3 10 0 14 -4 3 -7 0 -7 -7z" />
  </g>
  <g transform="translate(0.000000,632.000000) scale(0.100000,-0.100000)" fill="none" stroke="#000000">
    <path d="M1082 2690 c0 -14 2 -19 5 -12 2 6 2 18 0 25 -3 6 -5 1 -5 -13z" />
  </g>
  <g transform="translate(0.000000,632.000000) scale(0.100000,-0.100000)" fill="none" stroke="#000000">
    <path d="M3130 3330 c0 -7 3 -10 7 -7 3 4 3 10 0 14 -4 3 -7 0 -7 -7z" />
    <path d="M3820 2700 c0 -7 3 -10 7 -7 3 4 3 10 0 14 -4 3 -7 0 -7 -7z" />
    <path d="M3833 2103 c4 -3 10 -3 14 0 3 4 0 7 -7 7 -7 0 -10 -3 -7 -7z" />
    <path d="M4248 2103 c6 -2 18 -2 25 0 6 3 1 5 -13 5 -14 0 -19 -2 -12 -5z" />
    <path d="M4593 2103 c4 -3 10 -3 14 0 3 4 0 7 -7 7 -7 0 -10 -3 -7 -7z" />
  </g>
  <g transform="translate(0.000000,632.000000) scale(0.100000,-0.100000)" fill="none" stroke="#000000">
    <path d="M2010 3260 c0 -7 3 -10 7 -7 3 4 3 10 0 14 -4 3 -7 0 -7 -7z" />
    <path d="M1354 3248 l-7 -11 11 7 c12 7 16 16 8 16 -3 0 -8 -5 -12 -12z" />
    <path d="M1324 3218 l-7 -11 11 7 c12 7 16 16 8 16 -3 0 -8 -5 -12 -12z" />
  </g>
  <g transform="translate(0.000000,632.000000) scale(0.100000,-0.100000)" fill="none" stroke="#000000" />
  <g transform="translate(0.000000,632.000000) scale(0.100000,-0.100000)" fill="none" stroke="#000000">
    <path d="M1184 2238 l-7 -11 11 7 c12 7 16 16 8 16 -3 0 -8 -5 -12 -12z" />
    <path d="M1240 2121 c0 -6 4 -13 10 -16 l10 -6 -6 15 c-7 18 -14 21 -14 7z" />
    <path d="M1545 1980 c3 -5 8 -10 11 -10 3 0 2 5 -1 10 -3 6 -8 10 -11 10 -3 0
-2 -4 1 -10z" />
    <path d="M1438 1973 c7 -3 16 -2 19 1 4 3 -2 6 -13 5 l-19 -1 13 -5z" />
  </g>
  <g transform="translate(0.000000,632.000000) scale(0.100000,-0.100000)" fill="none" stroke="#000000">
    <path d="M1653 1993 c4 -3 10 -3 14 0 3 4 0 7 -7 7 -7 0 -10 -3 -7 -7z" />
  </g>
  <g transform="translate(0.000000,632.000000) scale(0.100000,-0.100000)" fill="none" stroke="#000000">
    <path d="M1080 2660 c0 -7 3 -10 7 -7 3 4 3 10 0 14 -4 3 -7 0 -7 -7z" />
  </g>
  <g transform="translate(0.000000,632.000000) scale(0.100000,-0.100000)" fill="none" stroke="#000000">
    <path d="M1105 2510 c3 -5 8 -10 11 -10 3 0 2 5 -1 10 -3 6 -8 10 -11 10 -3 0
-2 -4 1 -10z" />
  </g>
  <g transform="translate(0.000000,632.000000) scale(0.100000,-0.100000)" fill="none" stroke="#000000" />
</svg>